<svg xmlns="http://www.w3.org/2000/svg" viewBox="0 0 304 304" width="304" height="304">
  <path fill="none" stroke="#3b82f6" stroke-width="2" d="M44,174 L60,174 L60,190 L44,190 L44,174 Z M60,174 L68,182 M60,190 L68,182 M52,174 L52,190 M44,182 L60,182 M0,174 L44,174 M0,182 L44,182 M0,190 L44,190 M68,182 L304,182 M174,0 L174,174 M182,0 L182,174 M190,0 L190,174 M174,190 L174,304 M182,190 L182,304 M190,190 L190,304 M174,44 L190,44 L190,60 L174,60 L174,44 Z M190,44 L198,52 M190,60 L198,52 M174,52 L190,52 M182,44 L182,60 M198,52 L304,52 M0,52 L174,52"></path>
</svg>

